<?xml version="1.0" standalone="no"?>
<!DOCTYPE svg PUBLIC "-//W3C//DTD SVG 20010904//EN"
 "http://www.w3.org/TR/2001/REC-SVG-20010904/DTD/svg10.dtd">
<svg version="1.0" xmlns="http://www.w3.org/2000/svg"
 width="2135.000000pt" height="2135.000000pt" viewBox="0 0 2135.000000 2135.000000"
 preserveAspectRatio="xMidYMid meet">
<metadata>
Created by potrace 1.14, written by Peter Selinger 2001-2017
</metadata>
<g transform="translate(0.000000,2135.000000) scale(0.100000,-0.100000)"
fill="#000000" stroke="none">
<path d="M10627 21344 c-1 -1 -38 -4 -82 -8 -227 -17 -465 -108 -655 -249 -74
-55 -1148 -1125 -4805 -4782 -2591 -2591 -4733 -4738 -4761 -4770 -219 -256
-331 -570 -320 -903 9 -280 115 -564 290 -782 55 -68 9426 -9448 9507 -9516
115 -97 151 -120 289 -190 461 -233 1006 -168 1416 167 38 31 1066 1053 2282
2269 1217 1217 2212 2210 2212 2207 0 -7 4884 4877 4978 4978 86 92 179 228
232 339 36 76 92 243 104 311 3 17 8 44 12 60 13 65 12 322 -1 405 -33 205
-128 432 -249 591 -44 58 -871 891 -2563 2582 -5004 4999 -6941 6933 -6975
6963 -181 164 -474 293 -723 319 -61 7 -184 13 -188 9z"/>
</g>
</svg>
