<?xml version="1.0" standalone="no"?>
<!DOCTYPE svg PUBLIC "-//W3C//DTD SVG 20010904//EN"
 "http://www.w3.org/TR/2001/REC-SVG-20010904/DTD/svg10.dtd">
<svg version="1.0" xmlns="http://www.w3.org/2000/svg"
 width="700.000000pt" height="700.000000pt" viewBox="0 0 700.000000 700.000000"
 preserveAspectRatio="xMidYMid meet">
<metadata>
Created by potrace 1.14, written by Peter Selinger 2001-2017
</metadata>
<g transform="translate(0.000000,700.000000) scale(0.100000,-0.100000)"
fill="#000000" stroke="none">
<path d="M3410 6861 c-14 -4 -41 -16 -60 -25 -55 -27 -3162 -3148 -3191 -3205
-34 -65 -34 -196 -1 -261 16 -32 466 -490 1590 -1617 1286 -1289 1576 -1575
1617 -1595 72 -33 210 -33 275 1 32 16 506 484 1608 1584 1741 1740 1624 1613
1624 1755 0 143 131 1 -1610 1744 -1160 1161 -1579 1574 -1616 1594 -41 23
-66 28 -131 31 -44 1 -91 -1 -105 -6z m-1170 -2253 c25 -13 55 -39 68 -58 38
-56 27 -128 -70 -485 -47 -170 -168 -619 -269 -997 l-184 -687 -64 -7 c-115
-12 -216 27 -243 95 -17 45 -10 151 16 241 13 47 133 492 267 990 133 498 247
911 252 918 6 8 39 12 96 12 70 0 95 -4 131 -22z m1359 -136 c19 -9 44 -30 55
-45 21 -28 21 -39 24 -775 2 -502 0 -759 -8 -783 -22 -77 -157 -164 -328 -211
-113 -31 -372 -31 -487 1 -165 45 -274 113 -356 221 -97 129 -134 275 -126
489 3 77 12 162 21 196 57 211 202 363 412 434 133 44 326 48 442 8 l42 -15 0
239 c0 183 3 241 13 244 69 27 239 25 296 -3z m1326 -476 c175 -60 279 -164
320 -321 12 -49 15 -139 15 -531 l0 -471 -87 -12 c-149 -19 -245 7 -279 76
-17 35 -19 72 -24 453 -4 302 -8 421 -17 436 -22 38 -73 73 -131 90 -47 14
-68 15 -132 6 -41 -6 -101 -21 -133 -33 l-57 -22 0 -497 0 -498 -86 -12 c-98
-14 -194 -4 -239 26 -60 39 -60 35 -63 544 -2 256 0 484 3 507 17 119 167 223
393 273 72 16 118 19 262 17 160 -3 182 -6 255 -31z"/>
<path d="M3042 3719 c-119 -16 -210 -90 -249 -202 -26 -74 -26 -300 0 -374 23
-64 84 -135 141 -163 93 -44 246 -47 328 -4 l28 15 -2 347 -3 346 -45 17 c-58
21 -131 28 -198 18z"/>
</g>
</svg>
