<svg width="60" height="60" viewBox="0 0 60 60" fill="none" xmlns="http://www.w3.org/2000/svg">
<path d="M30 52.5C42.4264 52.5 52.5 42.4264 52.5 30C52.5 17.5736 42.4264 7.5 30 7.5C17.5736 7.5 7.5 17.5736 7.5 30C7.5 42.4264 17.5736 52.5 30 52.5Z" stroke="white" stroke-width="5" stroke-linecap="round" stroke-linejoin="round"/>
<path d="M43.0412 48.3307C39.8369 44.752 35.1812 42.5 29.9996 42.5C24.818 42.5 20.1623 44.752 16.958 48.3307" stroke="white" stroke-width="5" stroke-linecap="round" stroke-linejoin="round"/>
<path d="M30 35C34.1421 35 37.5 31.6421 37.5 27.5C37.5 23.3579 34.1421 20 30 20C25.8579 20 22.5 23.3579 22.5 27.5C22.5 31.6421 25.8579 35 30 35Z" stroke="white" stroke-width="5" stroke-linecap="round" stroke-linejoin="round"/>
</svg>
