<svg xmlns="http://www.w3.org/2000/svg" xmlns:xlink="http://www.w3.org/1999/xlink" viewBox="0 0 300 300"><defs><style>.cls-1{fill:#0b1423;}.cls-2{fill:url(#linear-gradient);}.cls-3{fill:url(#linear-gradient-2);}.cls-4{fill:url(#linear-gradient-5);}.cls-5{fill:url(#linear-gradient-6);}</style><linearGradient id="linear-gradient" x1="7.92" y1="150.02" x2="292.01" y2="150.02" gradientUnits="userSpaceOnUse"><stop offset="0" stop-color="#2db34a"/><stop offset="0.5" stop-color="#15ade4"/><stop offset="1" stop-color="#8c3c96"/></linearGradient><linearGradient id="linear-gradient-2" x1="67.53" y1="149.89" x2="221.41" y2="149.89" gradientUnits="userSpaceOnUse"><stop offset="0" stop-color="#fff"/><stop offset="1" stop-color="#6d6e70"/></linearGradient><linearGradient id="linear-gradient-5" x1="8.08" y1="150" x2="88.32" y2="150" gradientUnits="userSpaceOnUse"><stop offset="0" stop-color="#c7c8ca"/><stop offset="1" stop-color="#6d6e70"/></linearGradient><linearGradient id="linear-gradient-6" x1="221.06" y1="150" x2="292.16" y2="150" gradientUnits="userSpaceOnUse"><stop offset="0" stop-color="#8a8c8e"/><stop offset="1" stop-color="#454749"/></linearGradient></defs><g id="Logo_10" data-name="Logo 10"><rect class="cls-1" x="46.89" y="46.89" width="206.22" height="206.22" rx="15" transform="translate(-62.13 150) rotate(-45)"/><path class="cls-2" d="M141.16,283.45l-3.71-3.72-10-10L112.69,255,94.94,237.22,75.8,218.09,56.92,199.21l-17-17L26.59,168.88l-8.24-8.24L16.69,159A12.75,12.75,0,0,1,13,148.7c.4-4.22,3-6.93,5.77-9.71l8.66-8.65L41.11,116.6,58.28,99.43l19-19L96.32,61.39l17.59-17.58,14.43-14.43L138,19.75c1.65-1.64,3.31-3.63,5.29-4.88a12.63,12.63,0,0,1,15.59,1.68l1,1L167,24.75,179.69,37.4l16.48,16.49,18.68,18.67,19.2,19.21,18.11,18.1,15.34,15.34,10.94,11c1.63,1.63,3.27,3.25,4.9,4.89a12.69,12.69,0,0,1-.19,18.09l-5.64,5.63L266,176.27,250.29,192,232,210.3l-19.14,19.13L194.33,248l-16.16,16.16L166,276.28l-6.51,6.51a16.2,16.2,0,0,1-2.58,2.24,12.65,12.65,0,0,1-15.75-1.58c-2.31-2.25-5.84,1.28-3.53,3.53a17.66,17.66,0,0,0,18.85,3.87,19.23,19.23,0,0,0,6.34-4.31l6.16-6.16,12-12,16.18-16.18,18.65-18.65L235.33,214l18.49-18.49,15.87-15.86,11.53-11.54,5.53-5.52a17.75,17.75,0,0,0,.2-25c-1.47-1.5-3-3-4.46-4.45l-10.8-10.8L256.36,107,238.15,88.8,218.76,69.4l-19-19L183.15,33.79,170.42,21.06l-7.12-7.12c-.5-.49-1-1-1.5-1.47a17.75,17.75,0,0,0-19.23-2.92c-3.12,1.42-5.36,3.88-7.73,6.25l-9.38,9.38L111,39.63,93.34,57.3,74.08,76.56,54.93,95.72,37.5,113.14,23.67,127l-8.62,8.62-1.83,1.83a17.57,17.57,0,0,0-.15,25l1.41,1.41,7.93,7.92,13.32,13.33L52.85,202.2l19,19,19.34,19.33,17.93,17.94,14.91,14.91,10,10,3.54,3.54C139.9,289.26,143.44,285.73,141.16,283.45Z"/><g id="_dn" data-name="/dn"><path class="cls-3" d="M100.23,120.77l-20,74.59c-.82.08-1.62.13-2.41.17s-1.55.06-2.29.06a9.11,9.11,0,0,1-5.88-1.68q-2.07-1.68-2.07-5.27a18.7,18.7,0,0,1,.72-5c.49-1.71.92-3.21,1.29-4.48l20-74.59a22.06,22.06,0,0,1,2.58-.28c.82,0,1.56,0,2.24,0a9.43,9.43,0,0,1,5.76,1.62,5.92,5.92,0,0,1,2.19,5.1,17.1,17.1,0,0,1-.73,4.92C101.14,117.49,100.68,119.13,100.23,120.77Z"/><path class="cls-3" d="M141.67,170.84V136.56h15.57v36.18a7.82,7.82,0,0,1-1.12,4.31,10.77,10.77,0,0,1-3.48,3.19,31.46,31.46,0,0,1-7.72,3.42,36.62,36.62,0,0,1-11,1.51,37.57,37.57,0,0,1-15.85-3.08,22.44,22.44,0,0,1-10.3-9.41q-3.65-6.31-3.64-15.73,0-9.85,3.69-16.13a23.37,23.37,0,0,1,10-9.35,31.38,31.38,0,0,1,14-3.08,26,26,0,0,1,7.28,1,22.5,22.5,0,0,1,5.27,2.18v13a17.55,17.55,0,0,0-4.32-2.64,15.16,15.16,0,0,0-6.21-1.17,14.94,14.94,0,0,0-7.17,1.68,11.32,11.32,0,0,0-4.87,5.32,21.73,21.73,0,0,0-1.74,9.35q0,8.07,3.7,11.87t10.08,3.81a15.31,15.31,0,0,0,4.65-.62A18.93,18.93,0,0,0,141.67,170.84Zm15.57-31.14H141.67V110.58c.6-.15,1.55-.34,2.86-.56a24.41,24.41,0,0,1,4.08-.34c3.06,0,5.27.53,6.61,1.57s2,3,2,5.71Z"/><path class="cls-3" d="M221.41,148.77v10.64H205.84V149.22c0-2.91-.85-5.06-2.57-6.44a10.6,10.6,0,0,0-6.83-2.07,19.15,19.15,0,0,0-5.49.73,21.87,21.87,0,0,0-4.48,1.84v16.13H170.9V141.72a7.91,7.91,0,0,1,1.18-4.54,13,13,0,0,1,3.41-3.3,31.18,31.18,0,0,1,9-3.92,44.22,44.22,0,0,1,12.21-1.57q11.76,0,18.26,5.21T221.41,148.77Zm-50.51,5.38h15.57v29.23c-.67.15-1.65.34-2.91.56a24.29,24.29,0,0,1-4.15.34c-2.91,0-5.06-.53-6.44-1.57s-2.07-3-2.07-5.71Zm34.94,0h15.57v29.23c-.67.15-1.64.34-2.91.56a23.55,23.55,0,0,1-4,.34c-3,0-5.17-.53-6.55-1.57s-2.08-3-2.08-5.71Z"/></g><path class="cls-4" d="M88.32,230.45,26.75,168.88l-8.25-8.24L16.85,159A12.76,12.76,0,0,1,13.1,148.7c.4-4.22,3-6.93,5.77-9.71L77.39,80.48,88.32,69.55V62.48L74.23,76.56,55.08,95.72,37.65,113.14,23.82,127l-8.62,8.62-1.83,1.83a17.57,17.57,0,0,0-.15,25l1.41,1.41,7.93,7.92q6.66,6.68,13.33,13.33L53,202.2l19,19,16.28,16.28Z"/><path class="cls-5" d="M287.1,137.59c-1.47-1.5-3-3-4.45-4.45L256.51,107,238.31,88.8,221.06,71.55v7.07q6.57,6.59,13.15,13.15l18.1,18.1,15.34,15.34,11,11c1.63,1.63,3.26,3.25,4.89,4.89a12.68,12.68,0,0,1-.19,18.09c-1.87,1.88-3.76,3.75-5.63,5.63L250.44,192l-18.3,18.3-11.08,11.08v7.07L235.49,214l45.89-45.89,5.52-5.52A17.75,17.75,0,0,0,287.1,137.59Z"/></g></svg>