<svg xmlns="http://www.w3.org/2000/svg" xmlns:xlink="http://www.w3.org/1999/xlink" viewBox="0 0 284.0851 284.1447"><defs><style>.cls-1{fill:#0e1625;}.cls-2{fill:url(#New_Gradient_Swatch_copy_3);}.cls-3{fill:url(#linear-gradient);}.cls-4{fill:url(#New_Gradient_Swatch_copy_2);}.cls-5{fill:url(#New_Gradient_Swatch_copy_2-2);}.cls-6{fill:url(#New_Gradient_Swatch_copy_2-3);}</style><linearGradient id="New_Gradient_Swatch_copy_3" x1="83.5949" y1="258.9769" x2="216.3356" y2="258.9769" gradientUnits="userSpaceOnUse"><stop offset="0" stop-color="#2b3990"/><stop offset="0.5" stop-color="#17ace3"/><stop offset="1" stop-color="#2b3990"/></linearGradient><linearGradient id="linear-gradient" x1="83.5949" y1="41.024" x2="216.3356" y2="41.024" gradientUnits="userSpaceOnUse"><stop offset="0" stop-color="#2b3990"/><stop offset="0.5" stop-color="#00aeef"/><stop offset="1" stop-color="#2b3990"/></linearGradient><linearGradient id="New_Gradient_Swatch_copy_2" x1="7.9227" y1="149.9915" x2="291.2233" y2="149.9915" gradientUnits="userSpaceOnUse"><stop offset="0" stop-color="#f1f2f2"/><stop offset="1" stop-color="#58595b"/></linearGradient><linearGradient id="New_Gradient_Swatch_copy_2-2" x1="7.8912" y1="149.9915" x2="291.6693" y2="149.9915" xlink:href="#New_Gradient_Swatch_copy_2"/><linearGradient id="New_Gradient_Swatch_copy_2-3" x1="67.5283" y1="149.9019" x2="221.415" y2="149.9019" xlink:href="#New_Gradient_Swatch_copy_2"/></defs><g id="Fill"><rect class="cls-1" x="46.8889" y="46.8889" width="206.2222" height="206.2222" rx="15" transform="translate(-70.0548 142.0629) rotate(-45)"/></g><g id="Stroke"><path class="cls-2" d="M212.8512,229.426,194.33,247.9468q-8.0823,8.0823-16.1646,16.1646L159.493,282.7841a16.3034,16.3034,0,0,1-2.5819,2.2382,12.6482,12.6482,0,0,1-15.75-1.584l-3.7124-3.7124L127.41,269.6867l-14.7191-14.719-17.752-17.7521L83.5949,225.872v7.0711q3.8114,3.8112,7.6226,7.6226l17.9375,17.9375L124.0614,273.41l10.0268,10.0268,3.5374,3.5374a17.6668,17.6668,0,0,0,18.8579,3.866,19.1786,19.1786,0,0,0,6.3322-4.3073q3.0816-3.0816,6.1632-6.1632l12.0126-12.0126L197.17,252.1782l19.1656-19.1656v-7.0711" transform="translate(-7.9227 -7.9371)"/><path class="cls-3" d="M83.5949,74.111l12.73-12.73L113.908,43.7979,128.3361,29.37q4.8131-4.8131,9.626-9.626a33.6546,33.6546,0,0,1,5.2894-4.886A12.6322,12.6322,0,0,1,158.84,16.5463c.3493.342.6915.6916,1.0372,1.0372q3.578,3.5781,7.156,7.156l12.6543,12.6544L196.1742,53.88l18.6713,18.6714,1.49,1.49V66.9705L199.7982,50.433q-8.3241-8.324-16.6481-16.6481L170.4185,21.0533q-3.5593-3.5594-7.1187-7.1187c-.4954-.4954-.9827-1.005-1.5034-1.474a17.7311,17.7311,0,0,0-19.2236-2.9145c-3.1193,1.4181-5.3644,3.88-7.73,6.2459l-9.3795,9.3794L111.0147,39.62q-8.8368,8.8368-17.6735,17.6735-4.873,4.8732-9.7463,9.7463Z" transform="translate(-7.9227 -7.9371)"/><path class="cls-4" d="M83.5949,225.872,56.9233,199.2,39.9539,182.231,18.3517,160.6288c-.5531-.5531-1.1085-1.1038-1.6592-1.6592a12.76,12.76,0,0,1-3.7433-10.277c.398-4.2215,2.9981-6.934,5.7721-9.708l8.6557-8.6557,13.7352-13.7351L58.28,99.4261Q67.7564,89.95,77.2328,80.473q3.1812-3.1809,6.3621-6.362V67.04L15.05,135.5849q-.9142.9144-1.8287,1.8287a17.556,17.556,0,0,0-.1521,25.0036c.4659.4742.94.94,1.41,1.41l7.9284,7.9284,13.3251,13.3251,17.1152,17.1151,19.035,19.0351,11.7118,11.7118Z" transform="translate(-7.9227 -7.9371)"/><path class="cls-5" d="M286.9471,137.582c-1.4706-1.4985-2.97-2.97-4.4545-4.4546L271.6948,122.33l-15.3327-15.3327-18.21-18.21L218.7617,69.3965l-2.4261-2.426v7.0711l17.7193,17.7193q9.05,9.05,18.1006,18.1006L267.5,125.2063l10.9422,10.9422c1.6308,1.6307,3.2693,3.2543,4.8925,4.8925a12.6794,12.6794,0,0,1-.1889,18.09q-2.8106,2.8208-5.6314,5.6314l-11.5016,11.5016-15.7248,15.7248L231.9871,210.29l-15.6515,15.6515v7.0711l18.9984-18.9985,18.49-18.49,15.8622-15.8623,11.5382-11.5381q2.7636-2.7636,5.5272-5.5273A17.7451,17.7451,0,0,0,286.9471,137.582Z" transform="translate(-7.9227 -7.9371)"/></g><g id="Text"><g id="_dn" data-name="/dn"><path class="cls-6" d="M100.2324,120.7817,80.1846,195.374q-1.2334.11-2.4082.168-1.1763.0557-2.2959.0557a9.1135,9.1135,0,0,1-5.88-1.68q-2.0742-1.68-2.0723-5.2637a18.4049,18.4049,0,0,1,.7285-5.0405q.7266-2.5752,1.2881-4.48L89.5928,104.542a21.9926,21.9926,0,0,1,2.5752-.28q1.2319-.0549,2.24-.0556a9.4448,9.4448,0,0,1,5.7686,1.624,5.9333,5.9333,0,0,1,2.1836,5.0957,17.34,17.34,0,0,1-.7276,4.9282Q100.9019,118.3187,100.2324,120.7817Z" transform="translate(-7.9227 -7.9371)"/><path class="cls-6" d="M141.6709,170.8462V136.5737h15.5684V172.75a7.8064,7.8064,0,0,1-1.12,4.312,10.7475,10.7475,0,0,1-3.4716,3.1919,31.5032,31.5032,0,0,1-7.7286,3.416,36.6347,36.6347,0,0,1-10.9755,1.5122,37.5123,37.5123,0,0,1-15.8487-3.08,22.4767,22.4767,0,0,1-10.3037-9.4083q-3.64-6.3258-3.64-15.7358,0-9.8539,3.6953-16.1279a23.3533,23.3533,0,0,1,9.9687-9.3521,31.338,31.338,0,0,1,14-3.08,25.8886,25.8886,0,0,1,7.2793.9522,22.2077,22.2077,0,0,1,5.2647,2.1841v12.9917a17.43,17.43,0,0,0-4.3125-2.6319,15.1377,15.1377,0,0,0-6.2158-1.1762,14.94,14.94,0,0,0-7.168,1.68,11.3308,11.3308,0,0,0-4.8721,5.32,21.7718,21.7718,0,0,0-1.7363,9.352q0,8.064,3.6963,11.8721t10.08,3.8081a15.5556,15.5556,0,0,0,4.6484-.6162A18.1383,18.1383,0,0,0,141.6709,170.8462ZM157.2393,139.71H141.6709V110.59q.895-.2226,2.8564-.56a24.1958,24.1958,0,0,1,4.0879-.336q4.5909,0,6.6075,1.5679,2.017,1.57,2.0166,5.7124Z" transform="translate(-7.9227 -7.9371)"/><path class="cls-6" d="M221.415,148.7817v10.64H205.8467V149.23q0-4.3681-2.5762-6.44a10.5814,10.5814,0,0,0-6.832-2.0722,19.36,19.36,0,0,0-5.4873.728,22.1958,22.1958,0,0,0-4.4805,1.8481v16.128H170.9033V141.7261a7.9462,7.9462,0,0,1,1.1758-4.5362,13.1822,13.1822,0,0,1,3.416-3.3042,31.3614,31.3614,0,0,1,8.96-3.92,44.4044,44.4044,0,0,1,12.208-1.5679q11.76,0,18.2558,5.2081Q221.4126,138.8142,221.415,148.7817Zm-50.5117,5.376h15.5674V183.39q-1.0078.2228-2.9121.56a23.9384,23.9384,0,0,1-4.1436.3359q-4.3681,0-6.44-1.5683-2.0727-1.5668-2.0713-5.7119Zm34.9434,0H221.415V183.39q-1.0077.2228-2.9121.56a23.2457,23.2457,0,0,1-4.0322.3359q-4.481,0-6.5518-1.5683-2.0742-1.5668-2.0722-5.7119Z" transform="translate(-7.9227 -7.9371)"/></g></g></svg>