<?xml version="1.0" encoding="UTF-8"?><svg xmlns="http://www.w3.org/2000/svg" xmlns:xlink="http://www.w3.org/1999/xlink" viewBox="0 0 300 300"><defs><style>.h{fill:#0a1215;}.i{fill:url(#g);}.j{fill:url(#b);}.k{fill:url(#d);}</style><linearGradient id="b" x1="0" y1="150" x2="300" y2="150" gradientTransform="matrix(1, 0, 0, 1, 0, 0)" gradientUnits="userSpaceOnUse"><stop offset="0" stop-color="#2a3b8f"/><stop offset=".5" stop-color="#17ace3"/><stop offset="1" stop-color="#2a3b8f"/></linearGradient><linearGradient id="d" x1="150" y1="221.59" x2="150" y2="78.41" gradientTransform="matrix(1, 0, 0, 1, 0, 0)" gradientUnits="userSpaceOnUse"><stop offset="0" stop-color="#797a7b"/><stop offset=".5" stop-color="#fff"/><stop offset="1" stop-color="#6e6f71"/></linearGradient><linearGradient id="g" y1="185.95" y2="114.05" xlink:href="#d"/></defs><g id="a"><rect class="h" x="53.18" y="53.18" width="193.64" height="193.64" transform="translate(150 -62.13) rotate(45)"/><path class="j" d="M150,0L0,150l150,150,150-150L150,0ZM13.08,150L150,13.08l136.92,136.92-136.92,136.92L13.08,150Z"/></g><g id="c"><path id="e" class="k" d="M300,150l-71.59,71.59v-13.08l58.51-58.51-58.51-58.51v-13.08l71.59,71.59Zm-228.41,58.51L13.08,150l58.51-58.51v-13.08L0,150l71.59,71.59v-13.08Z"/></g><g id="f"><path class="i" d="M140.71,135.77c-1.64-4.35-4.04-8.17-7.19-11.45-3.15-3.29-6.97-5.82-11.45-7.6-4.49-1.78-9.57-2.67-15.25-2.67h-31.43v71.91h31.43c5.68,0,10.79-.89,15.31-2.67,4.52-1.78,8.34-4.28,11.45-7.5,3.12-3.22,5.5-7.02,7.14-11.4,1.64-4.38,2.47-9.18,2.47-14.38s-.82-9.88-2.47-14.23Zm-10.68,24.5c-1.1,3.08-2.69,5.74-4.78,7.96-2.09,2.23-4.73,3.95-7.91,5.19s-6.87,1.85-11.04,1.85h-19.83v-50.54h19.83c4.18,0,7.84,.62,10.99,1.85,3.15,1.23,5.79,2.98,7.91,5.24,2.12,2.26,3.73,4.93,4.83,8.01,1.1,3.08,1.64,6.47,1.64,10.17s-.55,7.19-1.64,10.27Zm94.6-46.22v71.91h-10.58l-48.11-55.67c.15,2.05,.3,3.95,.44,5.7,.21,2.43,.41,4.64,.62,6.63,.21,1.99,.36,3.79,.46,5.39,.1,1.61,.19,3.08,.26,4.42,.07,1.33,.1,2.55,.1,3.65v29.89h-11.09V114.05h10.38l48.02,56.85c-.13-.99-.25-2.01-.35-3.07-.21-2.16-.39-4.42-.57-6.78-.17-2.36-.31-4.83-.41-7.4s-.17-5.19-.21-7.86c-.04-2.67-.05-5.38-.05-8.12v-23.63h11.09Z"/></g></svg>