<svg id="Layer_1" data-name="Layer 1" xmlns="http://www.w3.org/2000/svg" xmlns:xlink="http://www.w3.org/1999/xlink" viewBox="0 0 285.2 285.22"><defs><style>.cls-1{fill:#0c1523;}.cls-2{fill:#0b1423;}.cls-3{fill:url(#linear-gradient);}.cls-4{fill:url(#linear-gradient-2);}</style><linearGradient id="linear-gradient" x1="2.99" y1="142.61" x2="282.21" y2="142.61" gradientUnits="userSpaceOnUse"><stop offset="0" stop-color="#eef3fa"/><stop offset="0.08" stop-color="#ebf2fa"/><stop offset="0.14" stop-color="#e3f0f9"/><stop offset="0.18" stop-color="#d4ecf8"/><stop offset="0.22" stop-color="#bfe6f6"/><stop offset="0.26" stop-color="#a4dff4"/><stop offset="0.3" stop-color="#83d6f1"/><stop offset="0.33" stop-color="#5dcbee"/><stop offset="0.33" stop-color="#5ccbee"/><stop offset="0.41" stop-color="#51c6ec"/><stop offset="0.55" stop-color="#33bae8"/><stop offset="0.66" stop-color="#15ade4"/><stop offset="0.8" stop-color="#227fa5"/><stop offset="1" stop-color="#363742"/></linearGradient><linearGradient id="linear-gradient-2" x1="69.2" y1="140.09" x2="210.2" y2="140.09" gradientUnits="userSpaceOnUse"><stop offset="0" stop-color="#fff"/><stop offset="1" stop-color="#6e6f71"/></linearGradient></defs><path class="cls-1" d="M142.6,283.72a16.39,16.39,0,0,1-11.67-4.84L6.32,154.28a16.51,16.51,0,0,1,0-23.34L130.93,6.33a16.51,16.51,0,0,1,23.34,0l124.6,124.61a16.51,16.51,0,0,1,0,23.34l-124.6,124.6A16.39,16.39,0,0,1,142.6,283.72Z"/><path class="cls-2" d="M142.6,3a15,15,0,0,1,10.61,4.39L277.81,132a15,15,0,0,1,0,21.21L153.21,277.82a15,15,0,0,1-21.22,0L7.38,153.21a15,15,0,0,1,0-21.21L132,7.39A15,15,0,0,1,142.6,3m0-3a17.88,17.88,0,0,0-12.73,5.27L5.26,129.88a18,18,0,0,0,0,25.46l124.61,124.6a18,18,0,0,0,25.46,0l124.61-124.6a18,18,0,0,0,0-25.46L155.33,5.27A17.88,17.88,0,0,0,142.6,0Z"/><path class="cls-3" d="M142.6,7a10.92,10.92,0,0,1,7.78,3.22L275,134.83a11,11,0,0,1,0,15.56L150.38,275a11,11,0,0,1-15.56,0L10.21,150.39a11,11,0,0,1,0-15.56L134.82,10.22A10.92,10.92,0,0,1,142.6,7m0-4A15,15,0,0,0,132,7.39L7.38,132a15,15,0,0,0,0,21.21L132,277.82a15,15,0,0,0,21.22,0l124.6-124.61a15,15,0,0,0,0-21.21L153.21,7.39A15,15,0,0,0,142.6,3Z"/><path class="cls-4" d="M69.2,168.48a9.28,9.28,0,0,1,2.52-6.6,8.8,8.8,0,0,1,6.77-2.69,8.63,8.63,0,0,1,6.72,2.69,9.42,9.42,0,0,1,2.47,6.6,9.64,9.64,0,0,1-2.47,6.67,8.56,8.56,0,0,1-6.72,2.74,8.73,8.73,0,0,1-6.77-2.74A9.5,9.5,0,0,1,69.2,168.48Z"/><path class="cls-4" d="M130.46,163.44V129.17H146v36.18a7.85,7.85,0,0,1-1.12,4.31,10.83,10.83,0,0,1-3.47,3.19,31.73,31.73,0,0,1-7.73,3.42,36.57,36.57,0,0,1-11,1.51,37.57,37.57,0,0,1-15.85-3.08,22.44,22.44,0,0,1-10.3-9.41q-3.64-6.33-3.64-15.73,0-9.85,3.7-16.13a23.29,23.29,0,0,1,10-9.35,31.24,31.24,0,0,1,14-3.08,25.63,25.63,0,0,1,7.28,1,22.08,22.08,0,0,1,5.27,2.18v13a18,18,0,0,0-4.31-2.63,15.24,15.24,0,0,0-6.22-1.17,14.94,14.94,0,0,0-7.17,1.68,11.32,11.32,0,0,0-4.87,5.32,21.7,21.7,0,0,0-1.74,9.35q0,8.06,3.7,11.87t10.08,3.81a15.63,15.63,0,0,0,4.65-.62A18.07,18.07,0,0,0,130.46,163.44ZM146,132.31H130.46V103.19c.6-.15,1.55-.34,2.86-.56a23.4,23.4,0,0,1,4.08-.34c3.06,0,5.27.53,6.61,1.57s2,3,2,5.71Z"/><path class="cls-4" d="M210.2,141.38V152H194.64V141.83q0-4.37-2.58-6.44a10.6,10.6,0,0,0-6.83-2.07,19.52,19.52,0,0,0-5.49.72,22.71,22.71,0,0,0-4.48,1.85V152H159.69v-17.7a7.9,7.9,0,0,1,1.18-4.53,13.17,13.17,0,0,1,3.41-3.31,31.74,31.74,0,0,1,9-3.92A44.61,44.61,0,0,1,185.45,121q11.76,0,18.26,5.2T210.2,141.38Zm-50.51,5.38h15.57V176c-.67.15-1.64.33-2.91.56a24.33,24.33,0,0,1-4.15.33q-4.37,0-6.44-1.56c-1.38-1-2.07-2.95-2.07-5.72Zm34.95,0H210.2V176c-.67.15-1.64.33-2.91.56a23.57,23.57,0,0,1-4,.33q-4.48,0-6.55-1.56c-1.38-1-2.07-2.95-2.07-5.72Z"/></svg>