<svg xmlns="http://www.w3.org/2000/svg" xmlns:xlink="http://www.w3.org/1999/xlink" viewBox="0 0 300 300"><defs><style>.cls-1{fill:#030f22;}.cls-2{fill:url(#linear-gradient);}.cls-3{fill:url(#linear-gradient-2);}</style><linearGradient id="linear-gradient" x1="10.39" y1="150" x2="289.61" y2="150" gradientUnits="userSpaceOnUse"><stop offset="0" stop-color="#6c2c8d"/><stop offset="0.11" stop-color="#6f2c8d"/><stop offset="0.18" stop-color="#772b8d"/><stop offset="0.24" stop-color="#86298d"/><stop offset="0.3" stop-color="#9b278e"/><stop offset="0.35" stop-color="#b6248e"/><stop offset="0.39" stop-color="#d7208f"/><stop offset="0.41" stop-color="#e31f8f"/><stop offset="0.44" stop-color="#e31f84"/><stop offset="0.51" stop-color="#e41f66"/><stop offset="0.59" stop-color="#e61e35"/><stop offset="0.62" stop-color="#e61e25"/><stop offset="0.78" stop-color="#f05d20"/><stop offset="1" stop-color="#febd18"/></linearGradient><linearGradient id="linear-gradient-2" x1="76.6" y1="147.48" x2="217.6" y2="147.48" gradientUnits="userSpaceOnUse"><stop offset="0" stop-color="#fff"/><stop offset="1" stop-color="#6d6e70"/></linearGradient></defs><g id="Logo_5.5" data-name="Logo 5.5"><path class="cls-1" d="M150,291.11a16.42,16.42,0,0,1-11.67-4.83L13.73,161.67a16.49,16.49,0,0,1,0-23.34l124.6-124.6a16.49,16.49,0,0,1,23.34,0l124.61,124.6a16.53,16.53,0,0,1,0,23.34L161.67,286.28A16.42,16.42,0,0,1,150,291.11Z"/><path class="cls-1" d="M150,10.39a15,15,0,0,1,10.61,4.4l124.6,124.6a15,15,0,0,1,0,21.22l-124.6,124.6a15,15,0,0,1-21.22,0L14.79,160.61a15,15,0,0,1,0-21.22l124.6-124.6A15,15,0,0,1,150,10.39m0-3a17.88,17.88,0,0,0-12.73,5.27L12.66,137.27a18,18,0,0,0,0,25.46L137.27,287.34a18,18,0,0,0,25.46,0L287.34,162.73a18,18,0,0,0,0-25.46L162.73,12.66A17.88,17.88,0,0,0,150,7.39Z"/><path class="cls-2" d="M150,14.39a11,11,0,0,1,7.78,3.22L282.39,142.22a11,11,0,0,1,0,15.56L157.78,282.39a11,11,0,0,1-15.56,0L17.61,157.78a11,11,0,0,1,0-15.56L142.22,17.61A11,11,0,0,1,150,14.39m0-4a15,15,0,0,0-10.61,4.4L14.79,139.39a15,15,0,0,0,0,21.22l124.6,124.6a15,15,0,0,0,21.22,0l124.6-124.6a15,15,0,0,0,0-21.22L160.61,14.79A15,15,0,0,0,150,10.39Z"/><path class="cls-3" d="M76.6,175.88a9.29,9.29,0,0,1,2.52-6.61,8.83,8.83,0,0,1,6.77-2.69,8.66,8.66,0,0,1,6.72,2.69,9.42,9.42,0,0,1,2.47,6.61,9.63,9.63,0,0,1-2.47,6.66,8.56,8.56,0,0,1-6.72,2.74,8.73,8.73,0,0,1-6.77-2.74A9.49,9.49,0,0,1,76.6,175.88Z"/><path class="cls-3" d="M137.86,170.84V136.56h15.57v36.18a7.82,7.82,0,0,1-1.12,4.31,10.72,10.72,0,0,1-3.47,3.19,31.73,31.73,0,0,1-7.73,3.42,36.57,36.57,0,0,1-11,1.51,37.44,37.44,0,0,1-15.85-3.08,22.49,22.49,0,0,1-10.3-9.41q-3.65-6.31-3.64-15.73,0-9.85,3.7-16.13a23.29,23.29,0,0,1,10-9.35,31.41,31.41,0,0,1,14-3.08,26,26,0,0,1,7.28,1,22.5,22.5,0,0,1,5.27,2.18v13a17.66,17.66,0,0,0-4.31-2.64,15.24,15.24,0,0,0-6.22-1.17,14.94,14.94,0,0,0-7.17,1.68,11.32,11.32,0,0,0-4.87,5.32,21.73,21.73,0,0,0-1.74,9.35q0,8.07,3.7,11.87T130,172.74a15.31,15.31,0,0,0,4.65-.62A18.93,18.93,0,0,0,137.86,170.84Zm15.57-31.14H137.86V110.58c.6-.15,1.55-.34,2.86-.56a24.41,24.41,0,0,1,4.08-.34c3.06,0,5.27.53,6.61,1.57s2,3,2,5.71Z"/><path class="cls-3" d="M217.6,148.77v10.64H202V149.22q0-4.36-2.58-6.44a10.6,10.6,0,0,0-6.83-2.07,19.15,19.15,0,0,0-5.49.73,22.11,22.11,0,0,0-4.48,1.84v16.13H167.09V141.72a7.91,7.91,0,0,1,1.18-4.54,13,13,0,0,1,3.41-3.3,31.18,31.18,0,0,1,9-3.92,44.22,44.22,0,0,1,12.21-1.57q11.76,0,18.26,5.21T217.6,148.77Zm-50.51,5.38h15.57v29.23c-.67.15-1.64.34-2.91.56a24.29,24.29,0,0,1-4.15.34c-2.91,0-5.06-.53-6.44-1.57s-2.07-3-2.07-5.71Zm34.95,0H217.6v29.23c-.67.15-1.64.34-2.91.56a23.55,23.55,0,0,1-4,.34c-3,0-5.17-.53-6.55-1.57s-2.07-3-2.07-5.71Z"/></g></svg>