<svg width="700" height="700" viewBox="0 0 700 700" fill="none" xmlns="http://www.w3.org/2000/svg">
<path d="M210.169 280.522C209.913 282.269 210.189 284.052 210.962 285.639C211.734 287.227 212.966 288.544 214.498 289.42L264.583 319.041L274.178 324.661C288.208 324.899 302.153 322.435 315.252 317.402C331.018 310.158 345.241 299.942 357.144 287.313L378.324 223.738L216.488 272.912C214.784 273.383 213.265 274.365 212.136 275.726C211.006 277.086 210.32 278.76 210.169 280.522Z" fill="#FE4370"/>
<path d="M418.46 252.307C425.13 238.14 430.162 227.368 432.386 223.27C433.156 221.677 433.433 219.891 433.183 218.139C432.933 216.387 432.166 214.749 430.981 213.436C429.866 212.069 428.365 211.07 426.675 210.568C424.984 210.067 423.181 210.087 421.502 210.626L399.152 217.416L382.301 268.581C384.407 267.41 386.513 266.122 388.854 264.951C398.314 259.838 408.225 255.605 418.46 252.307Z" fill="#FE4370"/>
<path d="M699.07 349.716C699.07 271.585 672.919 195.704 624.79 134.177C576.66 72.6492 509.324 29.0192 433.522 10.2458C357.719 -8.52768 277.816 -1.36325 206.557 30.5963C135.299 62.5559 76.7896 117.47 40.3615 186.579C3.93335 255.688 -8.31478 335.012 5.57013 411.898C19.455 488.784 58.6734 558.804 116.97 610.789C175.267 662.774 249.283 693.73 327.214 698.719C405.145 703.708 482.502 682.444 546.945 638.317C548.482 637.239 550.215 636.476 552.047 636.069C553.878 635.663 555.772 635.621 557.62 635.948C559.467 636.274 561.232 636.961 562.814 637.97C564.396 638.98 565.764 640.291 566.839 641.829L567.658 643.234C576.785 659.508 584.274 674.963 589.189 685.5C589.659 686.562 590.346 687.514 591.206 688.294C592.066 689.074 593.08 689.666 594.183 690.03C595.285 690.394 596.452 690.523 597.608 690.408C598.763 690.293 599.881 689.937 600.891 689.363C602.582 688.555 603.945 687.192 604.753 685.5C621.72 653.654 624.997 608.461 624.06 571.698C624.069 568.407 625.136 565.205 627.103 562.566C673.935 501.519 699.241 426.672 699.07 349.716ZM454.618 510.7L355.035 540.672C351.543 541.733 347.774 541.368 344.551 539.657C341.328 537.946 338.913 535.028 337.833 531.54V530.252C337.206 526.759 337.901 523.157 339.783 520.149C341.665 517.14 344.599 514.941 348.014 513.978L372.822 506.485C375.923 505.512 378.519 503.36 380.051 500.492C381.583 497.624 381.929 494.268 381.013 491.148L357.609 412.822C354.731 403.256 348.332 395.139 339.705 390.108L203.379 309.558C197.438 306.079 192.753 300.804 189.999 294.493C187.244 288.181 186.562 281.158 188.05 274.434C189.402 268.631 192.287 263.299 196.404 258.994C200.521 254.69 205.719 251.571 211.453 249.964L386.981 196.342L410.385 127.382C410.689 126.414 411.184 125.517 411.841 124.743C412.497 123.969 413.301 123.335 414.206 122.877C415.111 122.418 416.098 122.146 417.11 122.075C418.122 122.004 419.137 122.137 420.097 122.465L422.203 123.167C423.171 123.472 424.068 123.967 424.841 124.624C425.614 125.28 426.249 126.085 426.706 126.99C427.164 127.896 427.437 128.884 427.508 129.896C427.578 130.908 427.446 131.924 427.119 132.885L408.044 189.902L414.48 188.029C421.071 185.962 428.15 186.063 434.679 188.318C441.208 190.573 446.843 194.862 450.756 200.557C454.063 205.486 456.001 211.206 456.371 217.131C456.741 223.056 455.531 228.973 452.863 234.276L384.874 376.644C380.532 385.621 379.739 395.908 382.652 405.446L406.055 483.772C407.028 486.875 409.178 489.472 412.045 491.005C414.912 492.538 418.266 492.883 421.385 491.967L446.895 484.24C450.386 483.18 454.155 483.545 457.378 485.256C460.601 486.967 463.017 489.885 464.096 493.372V494.66C464.616 498.066 463.898 501.545 462.073 504.467C460.248 507.388 457.437 509.558 454.15 510.583L454.618 510.7Z" fill="#FE4370"/>
<g clip-path="url(#clip0_3013_18126)">
<path d="M381.015 372.62L449.749 229.968C452.431 224.637 453.641 218.688 453.253 212.736C452.865 206.783 450.894 201.041 447.543 196.1C443.605 190.352 437.918 186.021 431.323 183.746C424.727 181.471 417.574 181.373 410.918 183.468L404.503 185.398L423.715 128.094C424.044 127.115 424.176 126.082 424.103 125.052C424.03 124.023 423.754 123.018 423.29 122.096C422.826 121.173 422.184 120.352 421.401 119.678C420.617 119.004 419.708 118.492 418.725 118.17L416.655 117.493C414.679 116.838 412.523 116.99 410.659 117.917C408.795 118.843 407.375 120.469 406.71 122.438L383.526 191.494L205.291 245.683C199.537 247.321 194.325 250.46 190.191 254.776C186.056 259.091 183.149 264.428 181.769 270.237C180.218 276.999 180.865 284.078 183.618 290.448C186.37 296.817 191.084 302.147 197.077 305.663L334.546 386.608C343.197 391.684 349.619 399.82 352.536 409.401L376.636 488.076C377.578 491.22 377.236 494.608 375.684 497.501C374.133 500.394 371.498 502.558 368.354 503.52L343.541 511.106C340.12 512.11 337.19 514.337 335.312 517.361C333.433 520.386 332.738 523.995 333.358 527.498C334.14 531.123 336.329 534.291 339.446 536.309C342.563 538.328 346.354 539.032 349.991 538.268L351.111 537.998L451.413 507.516C454.839 506.533 457.778 504.315 459.659 501.293C461.541 498.27 462.231 494.659 461.595 491.158C461.228 489.362 460.508 487.657 459.476 486.14C458.445 484.623 457.122 483.325 455.586 482.321C454.049 481.316 452.328 480.625 450.523 480.288C448.717 479.95 446.862 479.973 445.065 480.354L443.843 480.659L418.216 488.55C416.661 489.025 415.026 489.189 413.407 489.032C411.788 488.875 410.216 488.401 408.781 487.636C407.346 486.871 406.077 485.832 405.045 484.576C404.014 483.321 403.242 481.874 402.772 480.32L379.012 401.577C376.005 392.017 376.72 381.678 381.015 372.62ZM417.911 205.956C419.067 205.607 420.282 205.491 421.484 205.612C422.686 205.734 423.852 206.091 424.915 206.664C425.978 207.237 426.917 208.014 427.678 208.95C428.439 209.886 429.007 210.964 429.35 212.12C430.001 214.297 429.819 216.639 428.84 218.69C426.838 222.788 421.611 233.626 414.822 247.783C404.462 251.149 394.412 255.398 384.782 260.483C382.474 261.703 380.268 262.956 377.994 264.209L395.203 212.797L417.911 205.956ZM209.296 285.342C207.209 284.102 205.699 282.088 205.095 279.74C204.491 277.393 204.842 274.902 206.072 272.811C207.168 270.716 209.045 269.135 211.299 268.408L374.396 219.029L353.012 282.802C339.977 294.453 329.693 305.46 310.854 312.979C297.681 318.127 283.622 320.635 269.478 320.362L259.804 314.638L209.296 285.342Z" fill="#F4F4F5"/>
</g>
<defs>
<clipPath id="clip0_3013_18126">
<rect width="280.845" height="421.487" fill="white" transform="translate(181.026 117.077)"/>
</clipPath>
</defs>
</svg>
