<svg width="60" height="60" viewBox="0 0 60 60" fill="none" xmlns="http://www.w3.org/2000/svg">
<path d="M50 50V47.5V50ZM10 50L10 52.5L10 50ZM7.5 47.5H10H7.5ZM7.5 15L7.5 12.5C6.83696 12.5 6.20107 12.7634 5.73223 13.2322C5.26339 13.7011 5 14.337 5 15L7.5 15ZM50 15L50 12.5H50V15ZM52.5 17.5L55 17.5V17.5L52.5 17.5ZM52.5 47.5L50 47.5V47.5H52.5ZM50 47.5L10 47.5L10 52.5L50 52.5V47.5ZM10 47.5L10 15L5 15L5 47.5H10ZM7.5 17.5L50 17.5L50 12.5L7.5 12.5L7.5 17.5ZM50 17.5L50 17.5L55 17.5C55 14.7386 52.7614 12.5 50 12.5L50 17.5ZM10 47.5H5C5 50.2614 7.23858 52.5 10 52.5L10 47.5ZM50 52.5C52.7614 52.5 55 50.2614 55 47.5H50V52.5ZM50 17.5L50 47.5L55 47.5L55 17.5L50 17.5Z" fill="white"/>
<path d="M30 15L25.7322 10.7322C25.2634 10.2634 24.6275 10 23.9645 10H10C8.61929 10 7.5 11.1193 7.5 12.5V15" stroke="white" stroke-width="5" stroke-linecap="round" stroke-linejoin="round"/>
</svg>
