<?xml version="1.0" standalone="no"?>
<!DOCTYPE svg PUBLIC "-//W3C//DTD SVG 20010904//EN"
 "http://www.w3.org/TR/2001/REC-SVG-20010904/DTD/svg10.dtd">
<svg version="1.0" xmlns="http://www.w3.org/2000/svg"
 width="700.000000pt" height="700.000000pt" viewBox="0 0 700.000000 700.000000"
 preserveAspectRatio="xMidYMid meet">
<metadata>
Created by potrace 1.14, written by Peter Selinger 2001-2017
</metadata>
<g transform="translate(0.000000,700.000000) scale(0.100000,-0.100000)"
fill="#000000" stroke="none">
<path d="M1908 5099 c-870 -875 -1584 -1593 -1585 -1597 -1 -4 713 -725 1587
-1602 l1590 -1595 1590 1595 c874 877 1589 1598 1587 1602 -4 13 -3169 3188
-3177 3188 -4 0 -721 -716 -1592 -1591z m842 -787 c41 -12 118 -42 170 -68 80
-40 109 -62 185 -138 73 -73 100 -109 138 -182 77 -151 92 -219 92 -424 0
-153 -3 -185 -23 -255 -82 -285 -274 -477 -557 -556 -76 -21 -100 -23 -537
-26 l-458 -4 0 841 0 841 458 -4 c429 -3 462 -5 532 -25z m1690 -608 c294
-349 544 -647 556 -661 l21 -26 -8 74 c-19 177 -29 472 -29 847 l0 402 130 0
130 0 0 -840 0 -840 -124 0 -123 0 -529 612 c-291 337 -541 626 -556 643 l-27
30 0 -40 c0 -22 7 -105 15 -185 11 -101 18 -284 21 -602 l5 -458 -136 0 -136
0 0 840 0 840 128 -1 127 0 535 -635z"/>
<path d="M2020 3500 l0 -592 293 5 c319 6 353 10 467 65 98 46 176 125 223
224 51 106 62 165 61 308 -1 106 -5 137 -27 205 -61 185 -181 298 -372 351
-47 13 -122 18 -352 21 l-293 5 0 -592z"/>
</g>
</svg>
