<svg width="136" height="35" viewBox="0 0 136 35" fill="none" xmlns="http://www.w3.org/2000/svg">
<path d="M12.88 34.836C10.544 34.836 8.432 34.436 6.544 33.636C4.688 32.836 3.216 31.684 2.128 30.18C1.04 28.676 0.48 26.9 0.448 24.852H7.648C7.744 26.228 8.224 27.316 9.088 28.116C9.984 28.916 11.2 29.316 12.736 29.316C14.304 29.316 15.536 28.948 16.432 28.212C17.328 27.444 17.776 26.452 17.776 25.236C17.776 24.244 17.472 23.428 16.864 22.788C16.256 22.148 15.488 21.652 14.56 21.3C13.664 20.916 12.416 20.5 10.816 20.052C8.64 19.412 6.864 18.788 5.488 18.18C4.144 17.54 2.976 16.596 1.984 15.348C1.024 14.068 0.544 12.372 0.544 10.26C0.544 8.276 1.04 6.548 2.032 5.076C3.024 3.604 4.416 2.484 6.208 1.716C8 0.915999 10.048 0.516 12.352 0.516C15.808 0.516 18.608 1.364 20.752 3.06C22.928 4.724 24.128 7.06 24.352 10.068H16.96C16.896 8.916 16.4 7.972 15.472 7.236C14.576 6.468 13.376 6.084 11.872 6.084C10.56 6.084 9.504 6.42 8.704 7.092C7.936 7.764 7.552 8.74 7.552 10.02C7.552 10.916 7.84 11.668 8.416 12.276C9.024 12.852 9.76 13.332 10.624 13.716C11.52 14.068 12.768 14.484 14.368 14.964C16.544 15.604 18.32 16.244 19.696 16.884C21.072 17.524 22.256 18.484 23.248 19.764C24.24 21.044 24.736 22.724 24.736 24.804C24.736 26.596 24.272 28.26 23.344 29.796C22.416 31.332 21.056 32.564 19.264 33.492C17.472 34.388 15.344 34.836 12.88 34.836ZM28.834 21.204C28.834 18.452 29.394 16.052 30.514 14.004C31.634 11.924 33.186 10.324 35.17 9.204C37.154 8.052 39.426 7.476 41.986 7.476C45.282 7.476 48.002 8.308 50.146 9.972C52.322 11.604 53.778 13.908 54.514 16.884H47.266C46.882 15.732 46.226 14.836 45.298 14.196C44.402 13.524 43.282 13.188 41.938 13.188C40.018 13.188 38.498 13.892 37.378 15.3C36.258 16.676 35.698 18.644 35.698 21.204C35.698 23.732 36.258 25.7 37.378 27.108C38.498 28.484 40.018 29.172 41.938 29.172C44.658 29.172 46.434 27.956 47.266 25.524H54.514C53.778 28.404 52.322 30.692 50.146 32.388C47.97 34.084 45.25 34.932 41.986 34.932C39.426 34.932 37.154 34.372 35.17 33.252C33.186 32.1 31.634 30.5 30.514 28.452C29.394 26.372 28.834 23.956 28.834 21.204ZM71.245 34.932C68.685 34.932 66.381 34.372 64.333 33.252C62.285 32.1 60.669 30.484 59.485 28.404C58.333 26.324 57.757 23.924 57.757 21.204C57.757 18.484 58.349 16.084 59.533 14.004C60.749 11.924 62.397 10.324 64.477 9.204C66.557 8.052 68.877 7.476 71.437 7.476C73.997 7.476 76.317 8.052 78.397 9.204C80.477 10.324 82.109 11.924 83.293 14.004C84.509 16.084 85.117 18.484 85.117 21.204C85.117 23.924 84.493 26.324 83.245 28.404C82.029 30.484 80.365 32.1 78.253 33.252C76.173 34.372 73.837 34.932 71.245 34.932ZM71.245 29.076C72.461 29.076 73.597 28.788 74.653 28.212C75.741 27.604 76.605 26.708 77.245 25.524C77.885 24.34 78.205 22.9 78.205 21.204C78.205 18.676 77.533 16.74 76.189 15.396C74.877 14.02 73.261 13.332 71.341 13.332C69.421 13.332 67.805 14.02 66.493 15.396C65.213 16.74 64.573 18.676 64.573 21.204C64.573 23.732 65.197 25.684 66.445 27.06C67.725 28.404 69.325 29.076 71.245 29.076ZM115.15 7.908V34.5H108.382V31.14C107.518 32.292 106.382 33.204 104.974 33.876C103.598 34.516 102.094 34.836 100.462 34.836C98.3824 34.836 96.5424 34.404 94.9424 33.54C93.3424 32.644 92.0784 31.348 91.1504 29.652C90.2544 27.924 89.8064 25.876 89.8064 23.508V7.908H96.5264V22.548C96.5264 24.66 97.0544 26.292 98.1104 27.444C99.1664 28.564 100.606 29.124 102.43 29.124C104.286 29.124 105.742 28.564 106.798 27.444C107.854 26.292 108.382 24.66 108.382 22.548V7.908H115.15ZM129.605 13.428V26.292C129.605 27.188 129.813 27.844 130.229 28.26C130.677 28.644 131.413 28.836 132.437 28.836H135.557V34.5H131.333C125.669 34.5 122.837 31.748 122.837 26.244V13.428H119.669V7.908H122.837V1.332H129.605V7.908H135.557V13.428H129.605Z" fill="#F4A259"/>
</svg>
