<svg width="538" height="539" viewBox="0 0 538 539" fill="none" xmlns="http://www.w3.org/2000/svg">
<path d="M265.094 534.038C264.951 534.036 264.809 534.018 264.667 534.016C264.603 534.015 264.524 534.013 264.461 534.012C264.682 534.016 264.888 534.035 265.094 534.038Z" fill="black"/>
<path d="M273.293 4.10138C273.087 4.0982 272.881 4.09501 272.659 4.10741C273.293 4.11721 273.91 4.14259 274.543 4.16822C274.132 4.14602 273.72 4.108 273.293 4.10138Z" fill="black"/>
<path d="M133.338 399.48C134.47 326.311 194.737 267.91 267.942 269.042C341.148 270.175 401.415 211.774 402.547 138.605C403.677 65.5792 345.481 5.4399 272.469 4.08866C126.432 2.28834 6.35928 118.909 4.09964 264.96C1.84856 410.458 117.359 530.359 262.577 533.952C189.968 532.163 132.212 472.221 133.338 399.48Z" fill="url(#paint0_linear_1012_1)"/>
<path d="M533.036 273.144C535.287 127.646 419.777 7.745 274.559 4.15264C273.926 4.14284 273.308 4.11746 272.675 4.09183C272.469 4.08865 272.264 4.06963 272.042 4.0662C272.185 4.06841 272.327 4.08644 272.469 4.08865C345.481 5.43988 403.677 65.5792 402.547 138.605C401.415 211.774 341.148 270.175 267.943 269.042C194.737 267.91 134.47 326.311 133.338 399.48C132.213 472.221 189.968 532.163 262.577 533.967C263.004 533.974 263.415 534.012 263.843 534.019C264.049 534.022 264.255 534.025 264.477 534.013C264.54 534.014 264.619 534.015 264.682 534.016C410.704 535.816 530.776 419.211 533.036 273.144Z" fill="url(#paint1_linear_1012_1)"/>
<path d="M270.313 196.685C303.292 197.195 330.44 170.887 330.95 137.925C331.46 104.962 305.139 77.8275 272.16 77.3172C239.181 76.807 212.033 103.115 211.523 136.077C211.013 169.04 237.334 196.174 270.313 196.685Z" fill="#D1D3D4"/>
<path d="M246.294 121.449C252.853 121.551 258.252 116.318 258.354 109.763C258.455 103.207 253.22 97.8101 246.661 97.7086C240.102 97.6071 234.702 102.839 234.601 109.395C234.5 115.951 239.735 121.348 246.294 121.449Z" fill="#E6E7E8"/>
<path d="M298.112 135.153C301.636 135.208 304.538 132.396 304.592 128.873C304.647 125.351 301.834 122.451 298.309 122.396C294.785 122.342 291.884 125.153 291.829 128.676C291.775 132.199 294.588 135.098 298.112 135.153Z" fill="#E6E7E8"/>
<path d="M257.477 166.392C262.086 166.463 265.88 162.787 265.951 158.18C266.023 153.573 262.344 149.781 257.735 149.71C253.127 149.639 249.333 153.315 249.261 157.922C249.19 162.528 252.868 166.32 257.477 166.392Z" fill="#E6E7E8"/>
<path d="M207.383 403.681C207.893 370.713 235.036 344.41 268.02 344.921C301.004 345.431 327.32 372.561 326.81 405.528" fill="#F7941D"/>
<g opacity="0.35">
<path opacity="0.35" d="M134.557 402.554L492.429 408.091" stroke="black" stroke-width="0.7363" stroke-miterlimit="10"/>
<path opacity="0.35" d="M206.546 398.364L135.527 391.044" stroke="black" stroke-width="0.7363" stroke-miterlimit="10"/>
<path opacity="0.35" d="M208.561 387.947L139.601 368.327" stroke="black" stroke-width="0.7363" stroke-miterlimit="10"/>
<path opacity="0.35" d="M212.341 378.032L147.225 346.456" stroke="black" stroke-width="0.7363" stroke-miterlimit="10"/>
<path opacity="0.35" d="M217.788 368.935L159.002 326.438" stroke="black" stroke-width="0.7363" stroke-miterlimit="10"/>
<path opacity="0.35" d="M224.723 360.921L173.946 308.558" stroke="black" stroke-width="0.7363" stroke-miterlimit="10"/>
<path opacity="0.35" d="M232.967 354.225L192.148 294.022" stroke="black" stroke-width="0.7363" stroke-miterlimit="10"/>
<path opacity="0.35" d="M242.233 349.065L212.425 282.495" stroke="black" stroke-width="0.7363" stroke-miterlimit="10"/>
<path opacity="0.35" d="M252.25 345.595L234.494 274.984" stroke="black" stroke-width="0.7363" stroke-miterlimit="10"/>
<path opacity="0.35" d="M262.729 343.921L257.517 271.335" stroke="black" stroke-width="0.7363" stroke-miterlimit="10"/>
<path opacity="0.35" d="M273.339 344.085L280.941 270.431" stroke="black" stroke-width="0.7363" stroke-miterlimit="10"/>
<path opacity="0.35" d="M368.628 48.0505L374.373 27.8601" stroke="black" stroke-width="0.7363" stroke-miterlimit="10"/>
<path opacity="0.35" d="M283.761 346.082L307.193 263.776" stroke="black" stroke-width="0.7363" stroke-miterlimit="10"/>
<path opacity="0.35" d="M402.166 126.409L432.66 63.6213" stroke="black" stroke-width="0.7363" stroke-miterlimit="10"/>
<path opacity="0.35" d="M293.681 349.861L343.858 246.502" stroke="black" stroke-width="0.7363" stroke-miterlimit="10"/>
<path opacity="0.35" d="M302.784 355.305L478.89 112.019" stroke="black" stroke-width="0.7363" stroke-miterlimit="10"/>
<path opacity="0.35" d="M310.801 362.253L511.398 167.867" stroke="black" stroke-width="0.7363" stroke-miterlimit="10"/>
<path opacity="0.35" d="M317.501 370.477L528.402 227.685" stroke="black" stroke-width="0.7363" stroke-miterlimit="10"/>
<path opacity="0.35" d="M322.664 379.739L531.135 286.476" stroke="black" stroke-width="0.7363" stroke-miterlimit="10"/>
<path opacity="0.35" d="M326.136 389.766L522.127 340.509" stroke="black" stroke-width="0.7363" stroke-miterlimit="10"/>
<path opacity="0.35" d="M327.811 400.241L503.69 387.59" stroke="black" stroke-width="0.7363" stroke-miterlimit="10"/>
</g>
<path d="M153.952 92.9023C154.395 94.9513 154.617 97.0127 154.759 99.0571C154.918 101.102 154.933 103.16 154.918 105.202C154.87 107.243 154.791 109.3 154.569 111.339C154.363 113.378 154.078 115.431 153.572 117.466C153.112 115.417 152.891 113.355 152.764 111.311C152.606 109.266 152.59 107.208 152.606 105.166C152.653 103.125 152.748 101.068 152.954 99.0292C153.144 96.9741 153.429 94.9364 153.952 92.9023Z" fill="#F9ED32"/>
<path d="M146.24 105.052C147.498 104.596 148.753 104.363 150.007 104.208C151.261 104.053 152.513 103.993 153.764 104.013C155.015 104.032 156.265 104.13 157.513 104.324C158.761 104.517 160.008 104.79 161.252 105.284C159.993 105.755 158.738 105.989 157.485 106.128C156.231 106.283 154.979 106.359 153.728 106.323C152.477 106.304 151.228 106.19 149.979 106.012C148.731 105.834 147.484 105.562 146.24 105.052Z" fill="#F9ED32"/>
<path d="M174.977 140.562C175.42 142.611 175.642 144.672 175.784 146.717C175.943 148.761 175.958 150.819 175.943 152.861C175.895 154.903 175.816 156.96 175.594 158.998C175.389 161.037 175.103 163.091 174.597 165.125C174.137 163.076 173.916 161.015 173.789 158.97C173.631 156.926 173.615 154.868 173.631 152.826C173.678 150.784 173.773 148.728 173.979 146.689C174.169 144.649 174.454 142.596 174.977 140.562Z" fill="#F9ED32"/>
<path d="M167.265 152.727C168.523 152.272 169.778 152.038 171.032 151.883C172.286 151.728 173.538 151.669 174.789 151.688C176.04 151.707 177.289 151.806 178.538 151.999C179.786 152.193 181.033 152.465 182.277 152.959C181.018 153.431 179.763 153.665 178.51 153.803C177.256 153.958 176.004 154.034 174.753 153.999C173.502 153.979 172.253 153.865 171.004 153.687C169.756 153.494 168.509 153.221 167.265 152.727Z" fill="#F9ED32"/>
<path d="M84.0084 188.056C84.4518 190.105 84.6734 192.166 84.816 194.211C84.9744 196.255 84.9901 198.313 84.9743 200.355C84.9269 202.397 84.8475 204.454 84.6259 206.492C84.4202 208.531 84.135 210.585 83.6283 212.619C83.169 210.57 82.9475 208.509 82.8208 206.464C82.6623 204.42 82.6466 202.362 82.6624 200.32C82.7098 198.278 82.805 196.222 83.0108 194.183C83.2007 192.143 83.4857 190.106 84.0084 188.056Z" fill="#F9ED32"/>
<path d="M76.2967 200.221C77.555 199.766 78.8099 199.532 80.0636 199.377C81.3172 199.222 82.5694 199.163 83.8204 199.182C85.0713 199.201 86.3211 199.3 87.5693 199.493C88.8176 199.687 90.0647 199.959 91.3083 200.453C90.0497 200.925 88.7948 201.159 87.5414 201.297C86.2878 201.452 85.0353 201.528 83.7846 201.493C82.5336 201.473 81.2842 201.359 80.0356 201.181C78.7874 200.988 77.5403 200.715 76.2967 200.221Z" fill="#F9ED32"/>
<defs>
<linearGradient id="paint0_linear_1012_1" x1="198.962" y1="483.343" x2="205.219" y2="78.9727" gradientUnits="userSpaceOnUse">
<stop stop-color="#262262"/>
<stop offset="1" stop-color="#2E3192"/>
</linearGradient>
<linearGradient id="paint1_linear_1012_1" x1="331.16" y1="467.423" x2="334.855" y2="228.566" gradientUnits="userSpaceOnUse">
<stop offset="0.2193" stop-color="#1C75BC"/>
<stop offset="0.2365" stop-color="#1E75BB"/>
<stop offset="0.2427" stop-color="#2574B6"/>
<stop offset="0.2471" stop-color="#3072AE"/>
<stop offset="0.2507" stop-color="#4170A2"/>
<stop offset="0.2538" stop-color="#576D93"/>
<stop offset="0.2565" stop-color="#736A80"/>
<stop offset="0.2589" stop-color="#93666A"/>
<stop offset="0.2612" stop-color="#B96150"/>
<stop offset="0.2632" stop-color="#E25C33"/>
<stop offset="0.2638" stop-color="#F15A29"/>
<stop offset="1" stop-color="#FBB040"/>
</linearGradient>
</defs>
</svg>
