<svg width="60" height="60" viewBox="0 0 60 60" fill="none" xmlns="http://www.w3.org/2000/svg">
<path d="M7.5 15L52.5 15" stroke="white" stroke-width="5" stroke-linecap="round" stroke-linejoin="round"/>
<path d="M10 50L50 50C51.3807 50 52.5 48.8807 52.5 47.5L52.5 12.5C52.5 11.1193 51.3807 10 50 10L10 10C8.61929 10 7.5 11.1193 7.5 12.5L7.5 47.5C7.5 48.8807 8.61929 50 10 50Z" stroke="white" stroke-width="5" stroke-linecap="round" stroke-linejoin="round"/>
<path d="M36.7678 25.7322C35.7915 24.7559 34.2085 24.7559 33.2322 25.7322C32.2559 26.7085 32.2559 28.2915 33.2322 29.2678L36.7678 25.7322ZM40 32.5L41.7678 34.2678C42.7441 33.2915 42.7441 31.7085 41.7678 30.7322L40 32.5ZM33.2322 35.7322C32.2559 36.7085 32.2559 38.2915 33.2322 39.2678C34.2085 40.2441 35.7915 40.2441 36.7678 39.2678L33.2322 35.7322ZM33.2322 29.2678L38.2322 34.2678L41.7678 30.7322L36.7678 25.7322L33.2322 29.2678ZM38.2322 30.7322L33.2322 35.7322L36.7678 39.2678L41.7678 34.2678L38.2322 30.7322Z" fill="white"/>
<path d="M23.2322 39.2678C24.2085 40.2441 25.7915 40.2441 26.7678 39.2678C27.7441 38.2915 27.7441 36.7085 26.7678 35.7322L23.2322 39.2678ZM20 32.5L18.2322 30.7322C17.7634 31.2011 17.5 31.837 17.5 32.5C17.5 33.163 17.7634 33.7989 18.2322 34.2678L20 32.5ZM26.7678 29.2678C27.7441 28.2915 27.7441 26.7085 26.7678 25.7322C25.7915 24.7559 24.2085 24.7559 23.2322 25.7322L26.7678 29.2678ZM26.7678 35.7322L21.7678 30.7322L18.2322 34.2678L23.2322 39.2678L26.7678 35.7322ZM21.7678 34.2678L26.7678 29.2678L23.2322 25.7322L18.2322 30.7322L21.7678 34.2678Z" fill="white"/>
</svg>
